<svg fill="#e1b303" xmlns="http://www.w3.org/2000/svg"  viewBox="0 0 24 24" width="50px" height="50px"><path d="M 17 2 L 17 5 L 16.296875 6.4042969 L 10.888672 7.0058594 L 10.757812 7.0292969 C 8.2092665 7.6665956 6.5484755 8.8289985 5.6933594 10.59375 L 3.5546875 9.1679688 L 2.4453125 10.832031 L 5.0957031 12.599609 C 5.0323863 13.040846 5 13.506097 5 14 L 5 16 L 8 19 L 7 22 L 9 22 L 11 18 L 11 16 L 12.71875 16 L 14 22 L 16 22 L 16 16.814453 L 16 15.287109 L 19.927734 9 L 20.759766 9 C 21.549766 9 22.320859 8.6791406 22.880859 8.1191406 L 24 7 L 24 5.5 C 24 5.22 23.78 5 23.5 5 L 22 5 L 21.289062 4.2890625 C 21.099062 4.1090625 20.849844 4 20.589844 4 L 19.5 4 L 18.599609 2.8007812 C 18.219609 2.3007813 17.63 2 17 2 z M 2.6992188 18.5 C 1.4992188 18.9 2.2 20.099609 1.5 20.099609 C 1.9 20.899609 3.4003906 20.900391 3.4003906 20.900391 C 3.4003906 20.900391 1.9007812 21.400391 1.3007812 20.400391 C 0.30078125 20.400391 0 22 0 22 L 5 22 C 5 19.7 2.8992188 19.9 2.6992188 18.5 z"/></svg>