<svg fill="#e1b303" xmlns="http://www.w3.org/2000/svg"  viewBox="0 0 24 24" width="50px" height="50px"><path d="M 18 0 C 10.601563 1.398438 15.804688 5.886719 9.90625 8.1875 C 12.207031 9.6875 15.5 10.988281 18.5 10.6875 C 18.898438 10.1875 19.414063 9.898438 18.8125 8 C 17.511719 3.601563 14.699219 3.601563 18 0 Z M 6.40625 9.03125 C 5.023438 9.046875 3.804688 9.941406 3.375 11.253906 C 2.941406 12.570313 3.394531 14.011719 4.5 14.84375 C 6.222656 16.199219 7.972656 16.664063 10.5 17.3125 C 10.679688 17.359375 10.878906 17.394531 11.0625 17.4375 C 6.816406 17.273438 4.78125 16.09375 4.78125 16.09375 C 4.222656 15.765625 3.582031 15.613281 2.9375 15.65625 C 1.503906 15.757813 0.3125 16.792969 0.0078125 18.195313 C -0.292969 19.597656 0.363281 21.035156 1.625 21.71875 C 1.625 21.71875 5.707031 23.9375 12 23.9375 C 18.292969 23.9375 22.375 21.71875 22.375 21.71875 C 23.539063 21.148438 24.25 19.941406 24.179688 18.648438 C 24.113281 17.351563 23.277344 16.226563 22.0625 15.78125 C 22.269531 14.804688 22.015625 13.789063 21.375 13.027344 C 20.734375 12.265625 19.777344 11.839844 18.78125 11.875 C 16.679688 11.957031 14.171875 11.589844 12.125 11.0625 C 10.386719 10.617188 8.753906 9.828125 8.5 9.75 C 8.460938 9.71875 8.445313 9.714844 8.46875 9.71875 C 7.882813 9.257813 7.152344 9.015625 6.40625 9.03125 Z"/></svg>