<?xml version="1.0"?><svg fill="#e1b303" xmlns="http://www.w3.org/2000/svg"  viewBox="0 0 128 128" width="50px" height="50px">    <path d="M 24 1 C 20.9 1 16.9 3.2996094 14 21.099609 C 12.1 32.599609 11 47.8 11 64 C 11 70 11.100391 76.000781 11.400391 81.800781 C 11.500391 83.400781 12.800391 84.599609 14.400391 84.599609 L 14.599609 84.599609 C 16.299609 84.499609 17.500391 83.1 17.400391 81.5 C 17.100391 75.8 17 69.9 17 64 C 17 30.3 21.3 11.3 24 7.5 C 26.7 11.4 31 30.3 31 64 C 31 65.7 32.3 67 34 67 C 35.7 67 37 65.7 37 64 C 37 47.8 35.9 32.599609 34 21.099609 C 32.9 14.499609 31.700391 10 30.400391 7 L 38.599609 7 C 39.799609 8.2 42.799219 14.900781 44.699219 34.300781 C 44.799219 35.900781 46.199219 37 47.699219 37 L 107.69922 37 L 108 37 L 108.19922 37 L 108.30078 37 C 109.80078 36.7 110.79922 35.300781 110.69922 33.800781 C 109.29922 19.700781 107.4 11.599609 105.5 7.0996094 L 113.69922 7.0996094 C 116.29922 9.5996094 121.09961 28.699609 121.09961 64.099609 C 121.09961 99.499609 116.29922 118.59961 113.69922 121.09961 L 74 121.09961 C 72.3 121.09961 71 122.39961 71 124.09961 C 71 125.79961 72.3 127.09961 74 127.09961 L 114 127.09961 C 117.1 127.09961 121.1 124.8 124 107 C 125.9 95.5 127 80.299609 127 64.099609 C 127 47.899609 125.9 32.699219 124 21.199219 C 121.1 3.2992188 117.1 1 114 1 L 99 1 C 95.9 1 91.900391 3.3 88.900391 21.5 C 88.600391 23.1 89.700391 24.700391 91.400391 24.900391 C 93.000391 25.200391 94.600781 24.100391 94.800781 22.400391 C 96.400781 12.500391 98.1 8.8 99 7.5 C 100.3 9.5 102.60078 15.9 104.30078 31 L 50.300781 31 C 47.100781 1 41.3 1 39 1 L 24 1 z M 38.841797 81.970703 C 38.598438 81.983203 38.349609 82.024609 38.099609 82.099609 L 34.699219 83.099609 C 31.699219 83.999609 29.200391 86.199219 27.900391 89.199219 L 25.800781 93.900391 C 24.000781 94.100391 21.200781 94.899609 19.800781 96.099609 C 17.700781 97.799609 16.399219 100.39961 16.199219 103.09961 L 16.199219 105.59961 C 16.199219 107.29961 14.899219 108.59961 13.199219 108.59961 L 9.6992188 108.59961 C 4.5992188 108.89961 0.59960937 113.39961 1.0996094 118.59961 C 1.4996094 123.39961 5.7 126.90039 10.5 126.90039 L 52.900391 126.90039 C 58.000391 126.90039 62.099609 122.79922 62.099609 117.69922 L 62.099609 115.40039 C 62.099609 112.90039 61.099219 110.49922 59.199219 108.69922 C 57.499219 107.29922 55.200391 106.30078 52.900391 106.30078 L 52.400391 106.30078 L 52.099609 106.30078 L 52.099609 105.30078 C 52.099609 100.20078 48.199609 95.900781 43.099609 95.300781 L 42.099609 95.199219 L 42 85 C 42 83.25 40.545312 81.883203 38.841797 81.970703 z"/></svg>