<svg fill="#000000" xmlns="http://www.w3.org/2000/svg"  viewBox="0 0 26 26" width="50px" height="50px"><path d="M 15 0 C 11.5 0 8.3125 1.710938 6.3125 4.3125 C 7.011719 4.710938 7.386719 5.1875 7.6875 5.6875 C 8.546875 4.578125 9.652344 3.652344 10.90625 3 L 14.09375 9.21875 C 13.445313 9.550781 13 10.222656 13 11 C 13 11.585938 13.257813 12.101563 13.65625 12.46875 L 8.9375 17.59375 C 7.996094 16.730469 7.203125 15.679688 6.6875 14.5 L 6.3125 14.5 C 5.613281 14.5 5.007813 14.292969 4.40625 14.09375 C 5.515625 17.65625 8.375 20.519531 12 21.5625 L 12 23 L 11 23 C 9.898438 23 9 23.898438 9 25 L 9 26 L 21 26 L 21 25 C 21 23.898438 20.101563 23 19 23 L 18 23 L 18 21.5625 C 22.625 20.261719 26 16.054688 26 11 C 26 4.898438 21.101563 0 15 0 Z M 15 2 C 19.574219 2 23.304688 5.351563 23.90625 9.75 L 16.96875 10.71875 C 16.832031 9.746094 16.007813 9 15 9 C 14.828125 9 14.660156 9.019531 14.5 9.0625 L 13.5 5.21875 C 15 4.84375 16.546875 5.03125 17.75 5.71875 L 18.25 4.875 C 17.484375 4.4375 16.621094 4.15625 15.71875 4.0625 C 14.90625 3.976563 14.074219 4.042969 13.25 4.25 L 12.75 2.3125 C 13.472656 2.121094 14.214844 2 15 2 Z M 4.5 5 C 5.199219 6.699219 3.1875 6.207031 3.1875 7.90625 C 4.1875 9.207031 6.5 9.5 6.5 9.5 C 6.5 9.5 4 9.988281 3 8.6875 C 0.601563 8.386719 0 11.3125 0 11.3125 C 0 11.3125 2.304688 10.289063 4.40625 12.1875 C 5.707031 13.386719 8.011719 13.1875 8.8125 11.1875 C 9.3125 10.085938 8.300781 8.40625 7 7.90625 C 6.800781 7.105469 6.601563 5.898438 4.5 5 Z M 17 11.15625 L 20.96875 11.5 C 20.71875 14.597656 18.164063 17 15 17 L 15 18 C 18.679688 18 21.683594 15.167969 21.96875 11.5625 L 23.96875 11.71875 C 23.609375 16.382813 19.761719 20 15 20 C 13.367188 20 11.855469 19.523438 10.53125 18.75 L 14 12.71875 C 14.292969 12.890625 14.636719 13 15 13 C 16.050781 13 16.921875 12.1875 17 11.15625 Z"/></svg>