<?xml version="1.0"?><svg fill="#e1b303" xmlns="http://www.w3.org/2000/svg"  viewBox="0 0 24 24" width="50px" height="50px">    <path d="M 12 2 C 12 2 9 4 9 6.5 C 9 6.665 9.0264063 6.832 9.0664062 7 L 11 7 C 11.552 7 12 7.448 12 8 C 12 8.552 11.552 9 11 9 L 10.568359 9 L 6.5878906 9 C 5.4488906 9 4.3867969 9.7203125 4.0917969 10.820312 C 3.6457969 12.483313 4.904 14 6.5 14 L 12 14 C 12.552 14 13 14.448 13 15 C 13 15.552 12.552 16 12 16 L 4.5878906 16 C 3.4488906 16 2.3867969 16.720312 2.0917969 17.820312 C 1.6457969 19.483313 2.904 21 4.5 21 L 19.5 21 C 21.096 21 22.354203 19.483312 21.908203 17.820312 C 21.613203 16.720312 20.551109 16 19.412109 16 L 17 16 C 16.448 16 16 15.552 16 15 C 16 14.448 16.448 14 17 14 L 17.412109 14 C 18.551109 14 19.613203 13.279688 19.908203 12.179688 C 20.354203 10.516687 19.096 9 17.5 9 L 14.484375 9 C 14.932521 8.5912751 15 8 15 8 C 15 5 12 5 12 2 z"/></svg>