<svg fill="#000000" xmlns="http://www.w3.org/2000/svg"  viewBox="0 0 24 24" width="50px" height="50px"><path d="M 14.5 2 C 13.121094 2 12 3.121094 12 4.5 C 12 5.878906 13.121094 7 14.5 7 C 15.878906 7 17 5.878906 17 4.5 C 17 3.121094 15.878906 2 14.5 2 Z M 12.6875 8 C 12.085938 8 11.601563 8.3125 11.5 8.8125 L 9.1875 14.09375 C 8.648438 15.351563 9.5 16.679688 10.6875 16.9375 L 10.6875 17 L 14 17.8125 L 12.5 22 L 14.59375 22 L 16.40625 17.40625 C 16.507813 17.105469 16.511719 16.792969 16.3125 16.59375 C 16.210938 16.292969 15.894531 16.199219 15.59375 16 L 13 14.8125 L 13.5625 13.5 L 13.59375 13.8125 L 13.59375 13.90625 L 13.625 13.90625 C 13.644531 14.160156 13.734375 14.441406 13.90625 14.65625 C 14.074219 14.867188 14.226563 14.953125 14.375 15.03125 C 14.398438 15.042969 14.417969 15.082031 14.4375 15.09375 L 17.375 16.9375 L 18.4375 15.25 L 15.5625 13.4375 L 15.15625 9.6875 C 15.367188 8.851563 14.734375 8 13.8125 8 Z M 8.6875 18.5 C 7.488281 18.898438 8.199219 20.09375 7.5 20.09375 C 7.898438 20.894531 9.40625 20.90625 9.40625 20.90625 C 9.40625 20.90625 7.914063 21.40625 7.3125 20.40625 C 6.3125 20.40625 6 22 6 22 L 11 22 C 11 19.699219 8.886719 19.898438 8.6875 18.5 Z"/></svg>