<svg fill="#757575" xmlns="http://www.w3.org/2000/svg"  viewBox="0 0 24 24" width="50px" height="50px"><path d="M 8 2 C 6.894531 2 6 2.894531 6 4 C 6 5.105469 6.894531 6 8 6 C 9.105469 6 10 5.105469 10 4 C 10 2.894531 9.105469 2 8 2 Z M 6.34375 7 C 5.988281 7.09375 5.667969 7.4375 5.59375 7.8125 L 5 12.5 L 8.125 14.03125 L 9.25 15.5625 L 10.53125 14.625 L 8.71875 12.1875 L 9 8.3125 C 9 7.8125 8.710938 7.414063 8.3125 7.3125 L 6.6875 7 C 6.5625 6.976563 6.460938 6.96875 6.34375 7 Z M 17.9375 8.53125 C 16.957031 8.582031 16.417969 9.445313 15.59375 9.59375 C 15.59375 10.792969 17.3125 12.59375 17.3125 12.59375 C 17.3125 12.59375 15.007813 11.8125 14.90625 9.8125 C 13.105469 9.113281 12.09375 11.40625 12.09375 11.40625 L 19.09375 15.1875 C 19.992188 14.289063 20.511719 12.800781 18.3125 10.5 C 18.113281 10 18.59375 9.511719 19.09375 8.8125 C 18.644531 8.585938 18.265625 8.515625 17.9375 8.53125 Z M 10.8125 11.8125 L 10.6875 15 C 10.6875 15.699219 11.113281 16.414063 11.8125 16.8125 L 14.90625 18.5 C 15.605469 18.898438 16.398438 18.804688 17 18.40625 L 19.59375 16.5 Z M 5.09375 13.59375 L 4.90625 17.59375 L 3 22 L 5 22 L 6.6875 18.1875 L 7.0625 15.9375 L 8 16.5 L 8 22 L 10 22 L 10 16.09375 Z M 19 18 C 18.398438 18 17.898438 18.289063 17.5 18.6875 L 19.1875 19.59375 C 19.386719 19.695313 19.507813 20.011719 19.40625 20.3125 C 19.304688 20.511719 19.101563 20.59375 19 20.59375 C 18.898438 20.59375 18.8125 20.601563 18.8125 20.5 L 17 19.59375 L 17 20 C 17 21.101563 17.898438 22 19 22 C 20.101563 22 21 21.101563 21 20 C 21 18.898438 20.101563 18 19 18 Z"/></svg>