<?xml version="1.0" standalone="no"?>
<!DOCTYPE svg PUBLIC "-//W3C//DTD SVG 20010904//EN"
 "http://www.w3.org/TR/2001/REC-SVG-20010904/DTD/svg10.dtd">
<svg version="1.0" xmlns="http://www.w3.org/2000/svg"
 width="700.000000pt" height="700.000000pt" viewBox="0 0 700.000000 700.000000"
 preserveAspectRatio="xMidYMid meet">
<metadata>
Created by potrace 1.14, written by Peter Selinger 2001-2017
</metadata>
<g transform="translate(0.000000,700.000000) scale(0.100000,-0.100000)"
fill="#000000" stroke="none">
<path d="M4959 6363 c0 -32 0 -230 -1 -440 l0 -383 -99 -197 c-54 -108 -102
-200 -106 -204 -9 -8 -46 -13 -288 -39 -55 -6 -116 -13 -135 -15 -57 -7 -121
-14 -184 -20 -33 -3 -73 -7 -90 -10 -78 -10 -135 -16 -265 -30 -24 -2 -60 -7
-80 -9 -20 -3 -63 -8 -95 -11 -33 -3 -71 -7 -85 -9 -14 -3 -55 -7 -91 -11 -36
-3 -78 -7 -95 -9 -16 -2 -59 -7 -95 -11 -104 -10 -435 -102 -525 -145 -11 -5
-44 -19 -73 -30 -79 -30 -257 -120 -337 -170 -156 -97 -310 -227 -425 -358
-50 -57 -172 -236 -206 -303 l-24 -49 -301 201 c-165 110 -306 202 -313 205
-8 3 -72 -84 -169 -230 -87 -129 -157 -239 -157 -243 0 -4 172 -122 382 -261
l380 -254 -7 -91 c-4 -51 -9 -108 -11 -127 -2 -29 -7 -713 -5 -761 1 -9 198
-212 438 -453 l436 -437 -129 -387 c-70 -213 -136 -410 -145 -438 l-16 -50
286 1 c157 1 289 3 293 3 4 1 137 260 295 575 l288 572 5 299 5 300 248 0
c136 1 247 -1 248 -4 2 -12 8 -42 19 -92 6 -29 24 -114 40 -188 49 -234 100
-472 120 -560 10 -47 21 -96 24 -110 2 -14 14 -70 26 -125 12 -55 24 -111 26
-125 13 -65 75 -354 102 -470 l17 -75 290 0 290 0 1 980 1 980 120 190 c190
300 1012 1619 1016 1629 2 5 86 10 187 12 102 1 200 7 218 13 17 5 32 8 32 6
0 -7 171 55 215 78 92 46 170 111 353 292 l192 192 0 231 c0 244 -4 269 -47
314 -34 36 -69 40 -326 41 l-212 0 -119 119 c-167 166 -188 174 -449 172
l-159 -1 -148 197 c-81 108 -172 217 -201 243 -87 76 -200 124 -336 142 l-43
6 -1 -58z"/>
<path d="M710 1568 c-94 -57 -135 -130 -160 -284 -14 -88 -39 -132 -80 -141
-17 -3 -30 -9 -30 -13 0 -4 18 -27 40 -52 36 -41 152 -113 198 -123 9 -2 44
-10 77 -19 75 -19 107 -24 168 -27 47 -3 67 -18 25 -20 -13 0 -32 -3 -43 -6
-11 -2 -65 -7 -119 -10 -167 -9 -264 23 -359 120 -53 54 -60 58 -93 53 -105
-17 -215 -128 -275 -278 -31 -78 -59 -171 -53 -177 3 -4 332 -6 731 -7 l724 0
-6 75 c-12 141 -53 257 -129 360 -48 64 -103 114 -241 215 -66 49 -144 112
-173 140 -54 52 -104 134 -117 194 -3 17 -12 32 -19 32 -6 0 -36 -15 -66 -32z"/>
</g>
</svg>
